nColumns=19
nRows=81
DataType=double
version=3
OpenSimVersion=4.1
endheader
time	ground_force_1_vx	ground_force_1_vy	ground_force_1_vz	ground_force_1_px	ground_force_1_py	ground_force_1_pz	ground_force_1_mx	ground_force_1_my	ground_force_1_mz	ground_force_2_vx	ground_force_2_vy	ground_force_2_vz	ground_force_2_px	ground_force_2_py	ground_force_2_pz	ground_force_2_mx	ground_force_2_my	ground_force_2_mz
4.125	-195.492	1607.56	43.1283	1.15887	0	-0.30143	0	-2.12626	0	0	0	0	-0.00230033	0	-4.63851e-05	0	0	0
4.13333	-161.353	1739.08	68.0279	1.12637	0	-0.303994	0	-5.67023	0	0	0	0	-0.00230033	0	-4.63846e-05	0	0	0
4.14167	-103.608	1835.52	77.2402	1.0923	0	-0.305865	0	-8.06208	0	0	0	0	-0.00230033	0	-4.63841e-05	0	0	0
4.15	-43.1005	1889.64	75.8285	1.05994	0	-0.306925	0	-9.13005	0	0	0	0	-0.00230032	0	-4.63838e-05	0	0	0
4.15833	15.9379	1900.3	71.4048	1.0288	0	-0.307007	0	-9.07645	0	0	0	0	-0.00230032	0	-4.63835e-05	0	0	0
4.16667	74.2913	1866.22	67.6165	0.9975	0	-0.306651	0	-8.30186	0	0	0	0	-0.00230032	0	-4.63832e-05	0	0	0
4.175	127.488	1781.58	64.4454	0.966512	0	-0.306606	0	-7.21243	0	0	0	0	-0.00230032	0	-4.63831e-05	0	0	0
4.18333	170.531	1642.36	61.5037	0.936878	0	-0.30694	0	-6.08833	0	0	0	0	-0.00230031	0	-4.6383e-05	0	0	0
4.19167	203.045	1450.22	58.6444	0.907855	0	-0.307243	0	-5.04092	0	0	0	0	-0.00230031	0	-4.63829e-05	0	0	0
4.2	229.172	1213.02	54.5287	0.875939	0	-0.307283	0	-4.05054	0	0	0	0	-0.00230031	0	-4.63827e-05	0	0	0
4.20833	243.463	949.741	46.9818	0.839259	0	-0.307046	0	-3.05344	0	0	0	0	-0.00230031	0	-4.63822e-05	0	0	0
4.21667	233.254	692.928	35.6999	0.801522	0	-0.306372	0	-2.02795	0	0	0	0	-0.00230031	0	-4.63812e-05	0	0	0
4.225	195.394	470.964	23.6404	0.769531	0	-0.305267	0	-1.03232	0	0	0	0	-0.0023003	0	-4.63798e-05	0	0	0
4.23333	143.726	296.19	14.5352	0.74779	0	-0.30329	0	-0.180311	0	0	0	0	-0.0023003	0	-4.6378e-05	0	0	0
4.24167	94.4736	169.118	9.36664	0.736279	0	-0.297997	-0	0.416225	-0	0	0	0	-0.00230029	0	-4.63759e-05	0	0	0
4.25	55.0791	85.3015	6.21542	0.733781	0	-0.285501	-0	0.693592	-0	0	0	0	-0.00230028	0	-4.63733e-05	0	0	0
4.25833	27.2595	37.2143	3.19764	0.755018	0	-0.260203	-0	0.650289	-0	0	0	0	-0.00230027	0	-4.63704e-05	0	0	0
4.26667	10.8238	14.6561	0.478679	0.89873	0	-0.208659	-0	0.339113	-0	0	0	0	-0.00230026	0	-4.63671e-05	0	0	0
4.275	0	0	0	-0.0022998	0	-4.61322e-05	0	0	0	0	0	0	-0.00230025	0	-4.63634e-05	0	0	0
4.28333	0	0	0	-0.00229979	0	-4.61283e-05	0	0	0	0	0	0	-0.00230024	0	-4.63593e-05	0	0	0
4.29167	0	0	0	-0.00229977	0	-4.6124e-05	0	0	0	0	0	0	-0.00230022	0	-4.63548e-05	0	0	0
4.3	0	0	0	-0.00229976	0	-4.61194e-05	0	0	0	0	0	0	-0.00230021	0	-4.63499e-05	0	0	0
4.30833	0	0	0	-0.00229974	0	-4.61144e-05	0	0	0	0	0	0	-0.00230019	0	-4.63446e-05	0	0	0
4.31667	0	0	0	-0.00229972	0	-4.6109e-05	0	0	0	0	0	0	-0.00230017	0	-4.6339e-05	0	0	0
4.325	0	0	0	-0.0022997	0	-4.61032e-05	0	0	0	0	0	0	-0.00230015	0	-4.6333e-05	0	0	0
4.33333	0	0	0	-0.00229968	0	-4.60971e-05	0	0	0	0	0	0	-0.00230013	0	-4.63265e-05	0	0	0
4.34167	0	0	0	-0.00229966	0	-4.60906e-05	0	0	0	0	0	0	-0.00230011	0	-4.63197e-05	0	0	0
4.35	0	0	0	-0.00229964	0	-4.60838e-05	0	0	0	0	0	0	-0.00230009	0	-4.63126e-05	0	0	0
4.35833	0	0	0	-0.00229962	0	-4.60766e-05	0	0	0	0	0	0	-0.00230006	0	-4.6305e-05	0	0	0
4.36667	0	0	0	-0.00229959	0	-4.6069e-05	0	0	0	0	0	0	-0.00230004	0	-4.62971e-05	0	0	0
4.375	0	0	0	-0.00229957	0	-4.60611e-05	0	0	0	-5.542	27.473	0.564322	1.32709	0	-0.304848	-0	0.946818	-0
4.38333	0	0	0	-0.00229954	0	-4.60528e-05	0	0	0	-24.7234	80.5064	3.45707	1.32322	0	-0.359246	0	-1.7466	0
4.39167	0	0	0	-0.00229951	0	-4.60441e-05	0	0	0	-69.1508	203.776	13.0801	1.31521	0	-0.370775	0	-4.89541	0
4.4	0	0	0	-0.00229948	0	-4.60351e-05	0	0	0	-132.787	408.845	32.2234	1.30738	0	-0.36738	0	-7.75139	0
4.40833	0	0	0	-0.00229945	0	-4.60257e-05	0	0	0	-179.368	659.834	54.884	1.29159	0	-0.360189	0	-9.44551	0
4.41667	0	0	0	-0.00229942	0	-4.6016e-05	0	0	0	-186.78	921.687	65.7863	1.25976	0	-0.353223	0	-9.28659	0
4.425	0	0	0	-0.00229938	0	-4.6006e-05	0	0	0	-183.374	1181.91	52.6224	1.21978	0	-0.34808	0	-7.07655	0
4.43333	0	0	0	-0.00229935	0	-4.59955e-05	0	0	0	-189.788	1418.77	19.1469	1.18484	0	-0.344021	0	-3.26003	0
4.44167	0	0	0	-0.00229931	0	-4.59848e-05	0	0	0	-188.893	1617.25	-17.7661	1.15409	0	-0.339854	-0	1.21295	-0
4.45	0	0	0	-0.00229928	0	-4.59737e-05	0	0	0	-162.673	1777.96	-42.9051	1.1218	0	-0.336018	-0	5.25638	-0
4.45833	0	0	0	-0.00229924	0	-4.59622e-05	0	0	0	-113.629	1896.7	-51.979	1.08812	0	-0.333385	-0	8.05057	-0
4.46667	0	0	0	-0.0022992	0	-4.59504e-05	0	0	0	-58.8707	1960.64	-49.6314	1.05705	0	-0.332235	-0	9.28296	-0
4.475	0	0	0	-0.00229916	0	-4.59383e-05	0	0	0	-9.1086	1967.14	-43.09	1.02951	0	-0.331947	-0	9.1528	-0
4.48333	0	0	0	-0.00229912	0	-4.59258e-05	0	0	0	39.4974	1925.07	-37.7652	1.00312	0	-0.331632	-0	8.19041	-0
4.49167	0	0	0	-0.00229908	0	-4.59129e-05	0	0	0	85.697	1839.84	-35.9606	0.976825	0	-0.330923	-0	7.004	-0
4.5	0	0	0	-0.00229903	0	-4.58998e-05	0	0	0	122.605	1711.07	-37.5268	0.951339	0	-0.329673	-0	6.06067	-0
4.50833	0	0	0	-0.00229899	0	-4.58863e-05	0	0	0	148.374	1539.39	-41.203	0.926926	0	-0.327757	-0	5.56435	-0
4.51667	0	0	0	-0.00229895	0	-4.58725e-05	0	0	0	165.196	1327.28	-45.3623	0.902382	0	-0.325432	-0	5.44434	-0
4.525	0	0	0	-0.0022989	0	-4.58583e-05	0	0	0	175.8	1080.1	-47.884	0.874725	0	-0.323279	-0	5.43569	-0
4.53333	0	0	0	-0.00229885	0	-4.58438e-05	0	0	0	179.305	813.322	-46.4311	0.840526	0	-0.321963	-0	5.21454	-0
4.54167	0	0	0	-0.0022988	0	-4.5829e-05	0	0	0	169.805	558.054	-39.7652	0.800703	0	-0.321654	-0	4.5408	-0
4.55	0	0	0	-0.00229875	0	-4.58139e-05	0	0	0	140.533	347.724	-28.9298	0.766033	0	-0.321536	-0	3.35725	-0
4.55833	0	0	0	-0.0022987	0	-4.57985e-05	0	0	0	98.4131	197.929	-17.0568	0.753077	0	-0.32005	-0	1.80887	-0
4.56667	0	0	0	-0.00229865	0	-4.57827e-05	0	0	0	58.025	104.447	-7.75769	0.7717	0	-0.313562	-0	0.179676	-0
4.575	0	0	0	-0.0022986	0	-4.57666e-05	0	0	0	28.6738	51.003	-2.94305	0.788051	0	-0.299243	0	-1.21809	0
4.58333	0	0	0	-0.00229854	0	-4.57502e-05	0	0	0	11.8024	22.0632	-1.72273	0.703054	0	-0.278109	0	-2.14931	0
4.59167	0	0	0	-0.00229849	0	-4.57335e-05	0	0	0	0	0	0	-0.0022989	0	-4.59451e-05	0	0	0
4.6	0	0	0	-0.00229843	0	-4.57165e-05	0	0	0	0	0	0	-0.00229884	0	-4.59273e-05	0	0	0
4.60833	0	0	0	-0.00229837	0	-4.56992e-05	0	0	0	0	0	0	-0.00229878	0	-4.59091e-05	0	0	0
4.61667	0	0	0	-0.00229832	0	-4.56816e-05	0	0	0	0	0	0	-0.00229872	0	-4.58906e-05	0	0	0
4.625	0	0	0	-0.00229826	0	-4.56636e-05	0	0	0	0	0	0	-0.00229866	0	-4.58718e-05	0	0	0
4.63333	0	0	0	-0.0022982	0	-4.56454e-05	0	0	0	0	0	0	-0.0022986	0	-4.58527e-05	0	0	0
4.64167	0	0	0	-0.00229814	0	-4.56269e-05	0	0	0	0	0	0	-0.00229854	0	-4.58333e-05	0	0	0
4.65	0	0	0	-0.00229807	0	-4.56081e-05	0	0	0	0	0	0	-0.00229848	0	-4.58136e-05	0	0	0
4.65833	0	0	0	-0.00229801	0	-4.5589e-05	0	0	0	0	0	0	-0.00229841	0	-4.57935e-05	0	0	0
4.66667	0	0	0	-0.00229795	0	-4.55697e-05	0	0	0	0	0	0	-0.00229835	0	-4.57732e-05	0	0	0
4.675	0	0	0	-0.00229788	0	-4.555e-05	0	0	0	0	0	0	-0.00229828	0	-4.57526e-05	0	0	0
4.68333	0	0	0	-0.00229782	0	-4.55301e-05	0	0	0	0	0	0	-0.00229821	0	-4.57317e-05	0	0	0
4.69167	-3.17806	12.9364	-3.48864	1.09655	0	-0.17596	0	-3.52483	0	0	0	0	-0.00229814	0	-4.57105e-05	0	0	0
4.7	-12.6953	30.8184	-8.96965	1.24271	0	-0.246487	0	-1.91162	0	0	0	0	-0.00229807	0	-4.5689e-05	0	0	0
4.70833	-38.9947	87.3508	-18.2377	1.30944	0	-0.275374	-0	0.363132	-0	0	0	0	-0.002298	0	-4.56672e-05	0	0	0
4.71667	-94.271	212.009	-29.1581	1.31983	0	-0.282206	-0	2.83405	-0	0	0	0	-0.00229793	0	-4.56452e-05	0	0	0
4.725	-162.899	400.847	-37.863	1.31468	0	-0.284715	-0	4.89039	-0	0	0	0	-0.00229786	0	-4.56229e-05	0	0	0
4.73333	-198.121	617.167	-40.9707	1.29244	0	-0.287652	-0	5.94128	-0	0	0	0	-0.00229779	0	-4.56003e-05	0	0	0
4.74167	-188.852	847.137	-36.4729	1.25127	0	-0.292129	-0	5.59621	-0	0	0	0	-0.00229771	0	-4.55774e-05	0	0	0
4.75	-175.438	1088.34	-22.3485	1.20668	0	-0.297263	-0	3.8019	-0	0	0	0	-0.00229764	0	-4.55543e-05	0	0	0
4.75833	-175.74	1319.09	2.50055	1.16996	0	-0.301459	-0	0.888147	-0	0	0	0	-0.00229756	0	-4.55309e-05	0	0	0
4.76667	-171.351	1518.24	33.8518	1.13812	0	-0.304485	0	-2.50838	0	0	0	0	-0.00229749	0	-4.55073e-05	0	0	0
4.775	-141.822	1679.09	61.9416	1.10536	0	-0.306884	0	-5.63893	0	0	0	0	-0.00229741	0	-4.54834e-05	0	0	0
4.78333	-87.5372	1799.31	78.4443	1.07106	0	-0.308817	0	-7.88928	0	0	0	0	-0.00229733	0	-4.54592e-05	0	0	0
4.79167	-26.8108	1874.01	82.6513	1.03809	0	-0.310098	0	-8.96462	0	0	0	0	-0.00229725	0	-4.54348e-05	0	0	0
